<svg width="173" height="38" viewBox="0 0 173 38" fill="none" xmlns="http://www.w3.org/2000/svg">
<path d="M5.18618 9.43975C7.53429 9.43975 9.4378 7.53624 9.4378 5.18814C9.4378 2.84004 7.53429 0.936523 5.18618 0.936523C2.83808 0.936523 0.93457 2.84004 0.93457 5.18814C0.93457 7.53624 2.83808 9.43975 5.18618 9.43975Z" fill="white"/>
<path d="M32.8121 9.43975C33.9397 9.43975 35.0211 8.99181 35.8184 8.19448C36.6158 7.39715 37.0637 6.31573 37.0637 5.18814C37.0637 4.06054 36.6158 2.97912 35.8184 2.18179C35.0211 1.38446 33.9397 0.936523 32.8121 0.936523H18.9992C17.8716 0.936523 16.7902 1.38446 15.9928 2.18179C15.1955 2.97912 14.7476 4.06054 14.7476 5.18814C14.7476 6.31573 15.1955 7.39715 15.9928 8.19448C16.7902 8.99181 17.8716 9.43975 18.9992 9.43975H32.8121Z" fill="white"/>
<path d="M18.9991 23.2527C20.1267 23.2527 21.2081 22.8048 22.0054 22.0075C22.8028 21.2101 23.2507 20.1287 23.2507 19.0011C23.2507 17.8735 22.8028 16.7921 22.0054 15.9948C21.2081 15.1974 20.1267 14.7495 18.9991 14.7495H5.18618C4.05859 14.7495 2.97717 15.1974 2.17984 15.9948C1.38251 16.7921 0.93457 17.8735 0.93457 19.0011C0.93457 20.1287 1.38251 21.2101 2.17984 22.0075C2.97717 22.8048 4.05859 23.2527 5.18618 23.2527H18.9991Z" fill="white"/>
<path d="M5.18618 37.0652C7.53429 37.0652 9.4378 35.1617 9.4378 32.8136C9.4378 30.4655 7.53429 28.562 5.18618 28.562C2.83808 28.562 0.93457 30.4655 0.93457 32.8136C0.93457 35.1617 2.83808 37.0652 5.18618 37.0652Z" fill="white"/>
<path d="M18.9992 37.0652C21.3473 37.0652 23.2508 35.1617 23.2508 32.8136C23.2508 30.4655 21.3473 28.562 18.9992 28.562C16.6511 28.562 14.7476 30.4655 14.7476 32.8136C14.7476 35.1617 16.6511 37.0652 18.9992 37.0652Z" fill="#607AFF"/>
<path d="M32.8136 37.0652C35.1617 37.0652 37.0652 35.1617 37.0652 32.8136C37.0652 30.4655 35.1617 28.562 32.8136 28.562C30.4655 28.562 28.562 30.4655 28.562 32.8136C28.562 35.1617 30.4655 37.0652 32.8136 37.0652Z" fill="#607AFF"/>
<path d="M32.8136 23.2527C35.1617 23.2527 37.0652 21.3492 37.0652 19.0011C37.0652 16.653 35.1617 14.7495 32.8136 14.7495C30.4655 14.7495 28.562 16.653 28.562 19.0011C28.562 21.3492 30.4655 23.2527 32.8136 23.2527Z" fill="#607AFF"/>
<path d="M59.496 10.12C57.2347 9.94933 56.104 10.856 56.104 12.84V13H59.496V16.968H56.104V29H51.976V16.968H49.672V13H51.976V12.84C51.976 10.5787 52.6053 8.86133 53.864 7.688C55.1227 6.51467 57 6.00267 59.496 6.152V10.12ZM72.9543 13H77.0823V29H72.9543V27.112C71.7169 28.6693 69.9783 29.448 67.7383 29.448C65.6049 29.448 63.7703 28.6373 62.2343 27.016C60.7196 25.3733 59.9622 23.368 59.9622 21C59.9622 18.632 60.7196 16.6373 62.2343 15.016C63.7703 13.3733 65.6049 12.552 67.7383 12.552C69.9783 12.552 71.7169 13.3307 72.9543 14.888V13ZM65.3383 24.264C66.1703 25.096 67.2263 25.512 68.5063 25.512C69.7863 25.512 70.8423 25.096 71.6743 24.264C72.5276 23.4107 72.9543 22.3227 72.9543 21C72.9543 19.6773 72.5276 18.6 71.6743 17.768C70.8423 16.9147 69.7863 16.488 68.5063 16.488C67.2263 16.488 66.1703 16.9147 65.3383 17.768C64.5063 18.6 64.0903 19.6773 64.0903 21C64.0903 22.3227 64.5063 23.4107 65.3383 24.264ZM84.9535 15.752C85.3375 14.728 85.9668 13.96 86.8415 13.448C87.7375 12.936 88.7295 12.68 89.8175 12.68V17.288C88.5588 17.1387 87.4282 17.3947 86.4255 18.056C85.4442 18.7173 84.9535 19.816 84.9535 21.352V29H80.8255V13H84.9535V15.752ZM109.928 12.552C111.762 12.552 113.224 13.1493 114.312 14.344C115.421 15.5387 115.976 17.1387 115.976 19.144V29H111.848V19.432C111.848 18.472 111.613 17.7253 111.144 17.192C110.674 16.6587 110.013 16.392 109.16 16.392C108.221 16.392 107.485 16.7013 106.952 17.32C106.44 17.9387 106.184 18.8347 106.184 20.008V29H102.056V19.432C102.056 18.472 101.821 17.7253 101.352 17.192C100.882 16.6587 100.221 16.392 99.3678 16.392C98.4504 16.392 97.7144 16.7013 97.1598 17.32C96.6264 17.9387 96.3598 18.8347 96.3598 20.008V29H92.2318V13H96.3598V14.696C97.3198 13.2667 98.8024 12.552 100.808 12.552C102.77 12.552 104.221 13.32 105.16 14.856C106.226 13.32 107.816 12.552 109.928 12.552ZM131.642 13H135.77V29H131.642V27.112C130.404 28.6693 128.666 29.448 126.426 29.448C124.292 29.448 122.458 28.6373 120.922 27.016C119.407 25.3733 118.65 23.368 118.65 21C118.65 18.632 119.407 16.6373 120.922 15.016C122.458 13.3733 124.292 12.552 126.426 12.552C128.666 12.552 130.404 13.3307 131.642 14.888V13ZM124.026 24.264C124.858 25.096 125.914 25.512 127.194 25.512C128.474 25.512 129.53 25.096 130.362 24.264C131.215 23.4107 131.642 22.3227 131.642 21C131.642 19.6773 131.215 18.6 130.362 17.768C129.53 16.9147 128.474 16.488 127.194 16.488C125.914 16.488 124.858 16.9147 124.026 17.768C123.194 18.6 122.778 19.6773 122.778 21C122.778 22.3227 123.194 23.4107 124.026 24.264ZM154.265 29H149.465L143.641 21.736V29H139.513V6.6H143.641V20.04L149.145 13H154.073L147.641 20.904L154.265 29ZM168.801 27.016C167.159 28.6373 165.153 29.448 162.785 29.448C160.417 29.448 158.412 28.6373 156.769 27.016C155.148 25.3733 154.337 23.368 154.337 21C154.337 18.632 155.148 16.6373 156.769 15.016C158.412 13.3733 160.417 12.552 162.785 12.552C165.153 12.552 167.159 13.3733 168.801 15.016C170.444 16.6373 171.265 18.632 171.265 21C171.265 23.368 170.444 25.3733 168.801 27.016ZM159.681 24.168C160.513 25 161.548 25.416 162.785 25.416C164.023 25.416 165.057 25 165.889 24.168C166.721 23.336 167.137 22.28 167.137 21C167.137 19.72 166.721 18.664 165.889 17.832C165.057 17 164.023 16.584 162.785 16.584C161.548 16.584 160.513 17 159.681 17.832C158.871 18.664 158.465 19.72 158.465 21C158.465 22.28 158.871 23.336 159.681 24.168Z" fill="white"/>
</svg>
