<svg width="2033" height="244" viewBox="0 0 2033 244" fill="none" xmlns="http://www.w3.org/2000/svg">
<path d="M833.165 79.657C819.546 78.6032 812.737 84.2016 812.737 96.452V97.4399H833.165V121.941H812.737V196.234H787.876V121.941H774V97.4399H787.876V96.452C787.876 82.4891 791.666 71.8853 799.246 64.6404C806.826 57.3955 818.133 54.2341 833.165 55.1562V79.657Z" fill="#303045"/>
<path d="M918.071 97.4399H942.932V196.234H918.071V184.576C910.619 194.192 900.148 199 886.658 199C873.81 199 862.761 193.994 853.51 183.983C844.388 173.841 839.827 161.458 839.827 146.837C839.827 132.215 844.388 119.899 853.51 109.888C862.761 99.7451 873.81 94.6737 886.658 94.6737C900.148 94.6737 910.619 99.4817 918.071 109.098V97.4399ZM872.204 166.991C877.215 172.128 883.574 174.697 891.283 174.697C898.992 174.697 905.352 172.128 910.362 166.991C915.501 161.722 918.071 155.004 918.071 146.837C918.071 138.67 915.501 132.018 910.362 126.88C905.352 121.611 898.992 118.977 891.283 118.977C883.574 118.977 877.215 121.611 872.204 126.88C867.193 132.018 864.688 138.67 864.688 146.837C864.688 155.004 867.193 161.722 872.204 166.991Z" fill="#303045"/>
<path d="M994.19 114.432C996.503 108.11 1000.29 103.368 1005.56 100.206C1010.96 97.0447 1016.93 95.464 1023.48 95.464V123.917C1015.9 122.995 1009.09 124.575 1003.06 128.659C997.145 132.742 994.19 139.526 994.19 149.01V196.234H969.33V97.4399H994.19V114.432Z" fill="#303045"/>
<path d="M1144.6 94.6737C1155.65 94.6737 1164.45 98.362 1171 105.739C1177.68 113.115 1181.02 122.995 1181.02 135.377V196.234H1156.16V137.155C1156.16 131.227 1154.75 126.617 1151.92 123.324C1149.09 120.031 1145.11 118.384 1139.97 118.384C1134.32 118.384 1129.89 120.294 1126.67 124.114C1123.59 127.934 1122.05 133.467 1122.05 140.712V196.234H1097.19V137.155C1097.19 131.227 1095.77 126.617 1092.95 123.324C1090.12 120.031 1086.14 118.384 1081 118.384C1075.48 118.384 1071.04 120.294 1067.7 124.114C1064.49 127.934 1062.88 133.467 1062.88 140.712V196.234H1038.02V97.4399H1062.88V107.912C1068.67 99.0865 1077.6 94.6737 1089.67 94.6737C1101.49 94.6737 1110.23 99.4158 1115.88 108.9C1122.31 99.4158 1131.88 94.6737 1144.6 94.6737Z" fill="#303045"/>
<path d="M1275.37 97.4399H1300.23V196.234H1275.37V184.576C1267.92 194.192 1257.45 199 1243.96 199C1231.11 199 1220.06 193.994 1210.81 183.983C1201.69 173.841 1197.12 161.458 1197.12 146.837C1197.12 132.215 1201.69 119.899 1210.81 109.888C1220.06 99.7451 1231.11 94.6737 1243.96 94.6737C1257.45 94.6737 1267.92 99.4817 1275.37 109.098V97.4399ZM1229.5 166.991C1234.51 172.128 1240.87 174.697 1248.58 174.697C1256.29 174.697 1262.65 172.128 1267.66 166.991C1272.8 161.722 1275.37 155.004 1275.37 146.837C1275.37 138.67 1272.8 132.018 1267.66 126.88C1262.65 121.611 1256.29 118.977 1248.58 118.977C1240.87 118.977 1234.51 121.611 1229.5 126.88C1224.49 132.018 1221.99 138.67 1221.99 146.837C1221.99 155.004 1224.49 161.722 1229.5 166.991Z" fill="#303045"/>
<path d="M1411.62 196.234H1382.71L1347.63 151.381V196.234H1322.77V57.9224H1347.63V140.909L1380.78 97.4399H1410.46L1371.72 146.244L1411.62 196.234Z" fill="#303045"/>
<path d="M1499.16 183.983C1489.27 193.994 1477.19 199 1462.93 199C1448.67 199 1436.59 193.994 1426.7 183.983C1416.93 173.841 1412.05 161.458 1412.05 146.837C1412.05 132.215 1416.93 119.899 1426.7 109.888C1436.59 99.7451 1448.67 94.6737 1462.93 94.6737C1477.19 94.6737 1489.27 99.7451 1499.16 109.888C1509.05 119.899 1514 132.215 1514 146.837C1514 161.458 1509.05 173.841 1499.16 183.983ZM1444.24 166.398C1449.25 171.535 1455.48 174.104 1462.93 174.104C1470.38 174.104 1476.61 171.535 1481.62 166.398C1486.63 161.261 1489.14 154.74 1489.14 146.837C1489.14 138.933 1486.63 132.413 1481.62 127.276C1476.61 122.138 1470.38 119.57 1462.93 119.57C1455.48 119.57 1449.25 122.138 1444.24 127.276C1439.35 132.413 1436.91 138.933 1436.91 146.837C1436.91 154.74 1439.35 161.261 1444.24 166.398Z" fill="#303045"/>
<ellipse cx="614.04" cy="192.98" rx="22.5018" ry="22.0187" fill="#607AFF"/>
<ellipse cx="541.502" cy="192.98" rx="22.5018" ry="22.0187" fill="#303045"/>
<ellipse cx="686.617" cy="121.892" rx="22.5018" ry="22.0187" fill="#607AFF"/>
<ellipse cx="541.502" cy="51.2668" rx="22.5018" ry="22.0187" fill="#303045"/>
<ellipse cx="686.58" cy="192.98" rx="22.5018" ry="22.0187" fill="#607AFF"/>
<ellipse cx="541.502" cy="121.759" rx="22.5018" ry="22.0187" fill="#303045"/>
<ellipse cx="614.04" cy="121.751" rx="22.5018" ry="22.0187" fill="#303045"/>
<rect x="541.296" y="99.6328" width="72.6805" height="44.0848" fill="#303045"/>
<rect x="541.296" y="99.6328" width="72.6805" height="44.0848" fill="#303045"/>
<ellipse cx="614.189" cy="51.1262" rx="22.5018" ry="22.0187" fill="#303045"/>
<ellipse cx="686.725" cy="51.1183" rx="22.5018" ry="22.0187" fill="#303045"/>
<rect x="613.981" y="29" width="72.6805" height="44.0848" fill="#303045"/>
</svg>
